<svg width="31" height="31" viewBox="0 0 31 31" fill="none" xmlns="http://www.w3.org/2000/svg">
<rect width="30" height="30" rx="9" fill="white"/>
<path d="M16.804 27.7701H8.48387C5.00419 27.7701 2.18164 24.9502 2.18164 21.4679V8.54783C2.18164 5.06815 5.0016 2.24561 8.48387 2.24561H18.6228C17.4922 2.35685 16.3979 2.59745 15.3475 2.97517C13.8547 3.51329 12.6414 4.32306 11.7074 5.40189C10.7735 6.48072 10.3052 7.77428 10.3052 9.28516C10.3052 10.9021 10.701 12.2164 11.4927 13.2202C12.2818 14.2266 13.2364 14.982 14.3515 15.4839C15.4639 15.9884 16.9024 16.4903 18.6642 16.9948C20.1026 17.4268 21.2254 17.8045 22.0352 18.1279C22.8424 18.4513 23.5176 18.9015 24.0583 19.4758C24.5964 20.0502 24.8655 20.7875 24.8655 21.6852C24.8655 23.015 24.3895 24.0499 23.4374 24.7846C22.4854 25.5219 21.1633 25.8893 19.4739 25.8893C17.6035 25.8893 16.1754 25.5737 15.1871 24.945C14.1988 24.3163 13.7047 23.4626 13.7047 22.3837C13.7047 21.5947 13.9116 20.9815 14.3256 20.5495C14.7395 20.1174 14.9465 19.8846 14.9465 19.8484C14.9465 19.6699 14.7214 19.4163 14.2713 19.0929C13.8211 18.7695 13.3088 18.6066 12.7345 18.6066C11.7281 18.6066 10.9106 18.9299 10.2819 19.5767C9.65324 20.2235 9.33761 21.0695 9.33761 22.1121C9.33761 23.9464 10.2353 25.3667 12.0334 26.3705C13.3373 27.1078 14.931 27.5683 16.804 27.7701Z" fill="#FA865F"/>
<path d="M21.6413 0H8.37192C3.7565 0 0 3.7565 0 8.37192V21.6413C0 26.2593 3.7565 30.0132 8.37192 30.0132H21.6413C26.2593 30.0132 30.0158 26.2567 30.0158 21.6413V8.37192C30.0158 3.7565 26.2593 0 21.6413 0ZM29.2991 21.6413C29.2991 25.8686 25.8712 29.2965 21.6438 29.2965H8.37192C4.14457 29.2965 0.716632 25.8686 0.716632 21.6413V8.37192C0.716632 4.14457 4.14457 0.716632 8.37192 0.716632H21.6413C23.4445 0.716632 25.1002 1.3453 26.4093 2.39309C27.8995 3.83152 28.8826 6.24272 27.7701 8.6565C27.6227 9.06268 27.4028 9.43523 27.1104 9.77155C26.518 10.4546 25.7341 10.7961 24.7639 10.7961C24.187 10.7961 23.6773 10.6331 23.2272 10.3097C22.777 9.98628 22.5519 9.73533 22.5519 9.55423C22.5519 9.51801 22.6968 9.37572 22.984 9.12218C23.2711 8.87123 23.5324 8.57371 23.7679 8.23221C24.0007 7.89071 24.1197 7.48712 24.1197 7.01886C24.0473 6.04869 23.5609 5.29325 22.6632 4.75513C21.7629 4.217 20.7021 3.94536 19.481 3.94536C18.115 3.94536 16.9198 4.26099 15.8953 4.88966C14.8708 5.51833 14.3585 6.39019 14.3585 7.50523C14.3585 8.51162 14.5732 9.31104 15.0053 9.90349C15.4373 10.4959 16.0841 10.9746 16.9456 11.3316C17.8071 11.6912 19.1731 12.1776 21.0436 12.7881C22.9478 13.3987 24.4405 13.9653 25.5193 14.4879C26.4352 14.9303 27.1777 15.5098 27.7701 16.2109C27.7779 16.2212 27.7857 16.229 27.7934 16.2394C28.7972 17.4475 29.2991 18.992 29.2991 20.5624V21.6413V21.6413Z" fill="#FA865F"/>
</svg>
