<svg width="18" height="23" viewBox="0 0 18 23" fill="none" xmlns="http://www.w3.org/2000/svg">
<path d="M14.7973 11.8636C14.8081 11.0289 15.0298 10.2105 15.4418 9.48457C15.8538 8.75861 16.4428 8.14868 17.1539 7.7115C16.7021 7.06634 16.1062 6.5354 15.4134 6.16085C14.7205 5.7863 13.9499 5.57845 13.1627 5.55382C11.4835 5.37756 9.85552 6.55865 8.99981 6.55865C8.12754 6.55865 6.81004 5.57132 5.39131 5.60051C4.47364 5.63016 3.57929 5.89701 2.79541 6.37507C2.01154 6.85313 1.36486 7.52609 0.918393 8.32838C-1.01561 11.6768 0.426982 16.5979 2.27959 19.3045C3.20649 20.6298 4.28977 22.1103 5.70722 22.0578C7.09428 22.0002 7.61232 21.1733 9.28662 21.1733C10.9454 21.1733 11.4314 22.0578 12.8776 22.0244C14.366 22.0002 15.3038 20.6931 16.1981 19.3552C16.8641 18.4109 17.3766 17.3672 17.7166 16.2627C16.8518 15.897 16.1139 15.2848 15.5948 14.5025C15.0757 13.7202 14.7983 12.8024 14.7973 11.8636V11.8636Z" fill="white"/>
<path d="M12.0649 3.77382C12.8764 2.79961 13.2763 1.54744 13.1794 0.283203C11.9396 0.413424 10.7943 1.00598 9.97186 1.94281C9.56971 2.40048 9.26172 2.93291 9.06547 3.50968C8.86923 4.08645 8.78858 4.69625 8.82815 5.3042C9.44829 5.31059 10.0618 5.17618 10.6225 4.91109C11.1831 4.646 11.6763 4.25715 12.0649 3.77382Z" fill="white"/>
</svg>
