<svg width="178.572876" height="39.996582" viewBox="0 0 178.573 39.9966" fill="none" xmlns="http://www.w3.org/2000/svg" xmlns:xlink="http://www.w3.org/1999/xlink">
	<desc>
			Created with Pixso.
	</desc>
	<defs/>
	<path id="SaaSto" d="M63.16 32.25Q60.53 32.25 58.4 31.35Q56.74 30.63 55.63 29.42L55.63 29.42L55.63 29.42L55.63 29.42Q55.34 29.1 55.09 28.76Q54.8 28.36 54.58 27.93Q53.86 26.52 53.83 24.76L59.23 24.76Q59.32 25.97 59.93 26.78L59.93 26.78Q60.1 27.01 60.31 27.21Q60.37 27.26 60.44 27.32L60.44 27.32L60.44 27.32L60.44 27.32Q61.43 28.11 63.05 28.11Q64.81 28.11 65.82 27.28C66.49 26.7 66.83 25.96 66.83 25.05C66.83 24.3 66.6 23.69 66.14 23.21C65.69 22.73 65.11 22.36 64.42 22.09Q63.41 21.66 61.61 21.16Q59.16 20.44 57.61 19.76Q57.35 19.63 57.11 19.49Q55.91 18.8 54.98 17.63Q53.9 16.19 53.9 13.82Q53.9 12 54.64 10.56L54.64 10.56Q54.81 10.23 55.02 9.93Q55.26 9.57 55.54 9.26L55.54 9.26L55.54 9.26Q56.57 8.09 58.15 7.41Q60.17 6.51 62.76 6.51Q66.59 6.51 68.99 8.36Q69.03 8.39 69.06 8.41Q69.94 9.09 70.53 9.95L70.53 9.95Q71.6 11.5 71.76 13.67L66.22 13.67Q66.18 13.07 65.94 12.58Q65.66 11.99 65.1 11.55Q65.05 11.51 65 11.47Q64.01 10.68 62.4 10.68Q61.01 10.68 60.13 11.35L60.13 11.35L60.13 11.35Q60.08 11.39 60.02 11.44Q59.86 11.58 59.73 11.75L59.73 11.75Q59.16 12.47 59.16 13.63Q59.16 14.26 59.41 14.76Q59.56 15.07 59.81 15.33Q60.49 15.98 61.46 16.41Q62.47 16.8 64.27 17.34Q66.72 18.06 68.27 18.78Q68.6 18.94 68.91 19.12L68.91 19.12Q70.05 19.81 70.93 20.94Q72.05 22.38 72.05 24.72Q72.05 25.72 71.79 26.65Q71.53 27.59 71 28.47C70.31 29.62 69.29 30.54 67.94 31.24C66.6 31.91 65 32.25 63.16 32.25ZM128.06 31.35Q130.18 32.25 132.81 32.25C134.66 32.25 136.25 31.91 137.6 31.24C138.94 30.54 139.96 29.62 140.66 28.47C141.35 27.32 141.7 26.07 141.7 24.72Q141.7 22.38 140.59 20.94Q139.71 19.81 138.56 19.12L138.56 19.12Q138.25 18.94 137.92 18.78C136.89 18.3 135.56 17.82 133.92 17.34C132.73 16.98 131.79 16.67 131.12 16.41Q130.14 15.98 129.46 15.33C129.03 14.87 128.81 14.31 128.81 13.63C128.81 12.67 129.1 11.94 129.68 11.44Q129.73 11.39 129.78 11.35Q130.66 10.68 132.05 10.68C133.18 10.68 134.08 10.97 134.75 11.55C135.45 12.1 135.82 12.81 135.87 13.67L141.41 13.67C141.25 11.41 140.35 9.66 138.71 8.41C137.11 7.14 135 6.51 132.41 6.51C130.69 6.51 129.15 6.81 127.81 7.41C126.46 7.98 125.42 8.82 124.67 9.93Q124.47 10.23 124.3 10.56L124.3 10.56L124.3 10.56Q123.56 12 123.56 13.82Q123.56 16.19 124.64 17.63C125.38 18.57 126.26 19.28 127.27 19.76Q128.81 20.44 131.26 21.16C132.46 21.5 133.4 21.81 134.07 22.09C134.77 22.36 135.34 22.73 135.8 23.21C136.25 23.69 136.48 24.3 136.48 25.05C136.48 25.96 136.14 26.7 135.47 27.28C134.8 27.83 133.88 28.11 132.7 28.11C131.55 28.11 130.64 27.81 129.97 27.21Q129.75 27.01 129.58 26.78Q128.97 25.97 128.89 24.76L123.49 24.76C123.51 26.3 123.93 27.63 124.75 28.76C125.56 29.88 126.67 30.75 128.06 31.35ZM151.58 16.19L151.58 25.84C151.58 26.51 151.74 27 152.05 27.32C152.38 27.6 152.94 27.75 153.7 27.75L156.04 27.75L156.04 32L152.88 32C148.63 32 146.5 29.93 146.5 25.8L146.5 16.19L144.13 16.19L144.13 12.05L146.5 12.05L146.5 7.12L151.58 7.12L151.58 12.05L156.04 12.05L156.04 16.19L151.58 16.19ZM75.95 16.59Q74.76 18.93 74.76 21.95Q74.76 25.01 75.95 27.39Q76.93 29.27 78.46 30.48L78.46 30.48L78.46 30.48Q78.82 30.77 79.22 31.02Q80.09 31.56 81.04 31.88L81.04 31.88L81.04 31.88L81.04 31.88Q82.36 32.32 83.83 32.32C85.32 32.32 86.63 32.02 87.76 31.42C88.91 30.8 89.81 30.02 90.46 29.08L90.46 32L95.53 32L95.53 12.05L90.46 12.05L90.46 14.89C89.78 13.98 88.88 13.23 87.76 12.63Q86.1 11.73 83.87 11.73Q82.18 11.73 80.69 12.28L80.69 12.28Q79.93 12.56 79.22 12.99Q78.85 13.22 78.5 13.48Q76.95 14.67 75.95 16.59ZM98.8 21.95Q98.8 18.93 99.99 16.59Q100.99 14.67 102.54 13.48Q102.89 13.22 103.26 12.99Q103.97 12.56 104.73 12.28L104.73 12.28Q106.22 11.73 107.91 11.73Q110.14 11.73 111.8 12.63C112.92 13.23 113.82 13.98 114.5 14.89L114.5 12.05L119.57 12.05L119.57 32L114.5 32L114.5 29.08C113.85 30.02 112.95 30.8 111.8 31.42Q110.1 32.32 107.87 32.32Q106.4 32.32 105.08 31.88L105.08 31.88Q104.13 31.56 103.26 31.02C101.9 30.16 100.8 28.95 99.99 27.39Q98.8 25.01 98.8 21.95ZM162.98 31.06C164.52 31.9 166.24 32.32 168.16 32.32C170.11 32.32 171.86 31.9 173.42 31.06C175 30.2 176.25 28.98 177.16 27.42Q177.33 27.15 177.47 26.87Q178.57 24.73 178.57 22.02Q178.57 19.2 177.41 16.99Q177.31 16.81 177.2 16.62Q176.48 15.35 175.46 14.4Q174.6 13.6 173.53 13.02C171.97 12.16 170.23 11.73 168.31 11.73C166.39 11.73 164.65 12.16 163.09 13.02Q162.08 13.57 161.25 14.32Q160.16 15.3 159.38 16.62Q159.33 16.71 159.28 16.81Q158.05 19.08 158.05 22.02Q158.05 25.08 159.34 27.42C160.23 28.98 161.44 30.2 162.98 31.06ZM170.72 27.28C169.93 27.71 169.08 27.93 168.16 27.93C166.72 27.93 165.52 27.42 164.56 26.41C163.63 25.38 163.16 23.92 163.16 22.02C163.16 20.13 163.64 18.67 164.6 17.67C165.58 16.63 166.8 16.12 168.24 16.12C169.68 16.12 170.89 16.63 171.87 17.67C172.88 18.67 173.38 20.13 173.38 22.02C173.38 23.3 173.14 24.37 172.66 25.26C172.18 26.15 171.54 26.82 170.72 27.28ZM89.74 18.89C90.22 19.76 90.46 20.8 90.46 22.02C90.46 23.25 90.22 24.3 89.74 25.19C89.26 26.06 88.61 26.73 87.79 27.21Q87.19 27.55 86.54 27.72Q85.87 27.89 85.16 27.89C84.25 27.89 83.39 27.65 82.57 27.17Q82.42 27.08 82.27 26.97L82.27 26.97Q81.29 26.28 80.63 25.12Q79.91 23.75 79.91 21.95Q79.91 20.15 80.63 18.85Q81.3 17.68 82.3 17.01L82.3 17.01L82.31 17L82.31 17Q82.44 16.92 82.57 16.84Q83.06 16.56 83.58 16.39L83.58 16.39Q84.34 16.15 85.16 16.15Q85.81 16.15 86.42 16.31Q87.13 16.49 87.79 16.87C88.61 17.33 89.26 18 89.74 18.89ZM114.5 22.02C114.5 20.8 114.26 19.76 113.78 18.89C113.3 18 112.65 17.33 111.83 16.87Q111.17 16.49 110.45 16.31Q109.85 16.15 109.2 16.15C108.27 16.15 107.4 16.38 106.61 16.84C105.82 17.29 105.17 17.97 104.67 18.85C104.19 19.72 103.95 20.75 103.95 21.95C103.95 23.15 104.19 24.21 104.67 25.12C105.17 26.01 105.82 26.69 106.61 27.17C107.43 27.65 108.29 27.89 109.2 27.89Q109.91 27.89 110.58 27.72Q111.23 27.55 111.83 27.21C112.65 26.73 113.3 26.06 113.78 25.19C114.26 24.3 114.5 23.25 114.5 22.02Z" fill="#18063C" fill-opacity="1.000000" fill-rule="evenodd"/>
	<path id="Vector" d="M22.39 37L11.3 37C6.66 37 2.9 33.24 2.9 28.6L2.9 11.39C2.9 6.75 6.66 2.99 11.3 2.99L24.81 2.99C23.3 3.14 21.85 3.46 20.45 3.96C18.46 4.68 16.84 5.76 15.6 7.19C14.35 8.63 13.73 10.36 13.73 12.37C13.73 14.52 14.25 16.28 15.31 17.61C16.36 18.95 17.63 19.96 19.12 20.63C20.6 21.3 22.52 21.97 24.87 22.64C26.78 23.22 28.28 23.72 29.36 24.15C30.43 24.58 31.33 25.18 32.05 25.95C32.77 26.71 33.13 27.7 33.13 28.89C33.13 30.67 32.5 32.04 31.23 33.02C29.96 34.01 28.2 34.5 25.95 34.5C23.45 34.5 21.55 34.08 20.23 33.24C18.92 32.4 18.26 31.26 18.26 29.82C18.26 28.77 18.53 27.96 19.08 27.38C19.64 26.8 19.91 26.49 19.91 26.45C19.91 26.21 19.61 25.87 19.01 25.44C18.41 25.01 17.73 24.79 16.96 24.79C15.62 24.79 14.53 25.22 13.7 26.08C12.86 26.95 12.44 28.07 12.44 29.46C12.44 31.91 13.63 33.8 16.03 35.14C17.77 36.12 19.89 36.73 22.39 37Z" fill="#FA865F" fill-opacity="1.000000" fill-rule="nonzero"/>
	<path id="Vector" d="M28.83 0L11.15 0C5 0 0 5 0 11.15L0 28.83C0 34.99 5 39.99 11.15 39.99L28.83 39.99C34.99 39.99 40 34.99 40 28.83L40 11.15C40 5 34.99 0 28.83 0ZM39.04 28.83C39.04 34.47 34.47 39.04 28.84 39.04L11.15 39.04C5.52 39.04 0.95 34.47 0.95 28.83L0.95 11.15C0.95 5.52 5.52 0.95 11.15 0.95L28.83 0.95C31.24 0.95 33.44 1.79 35.19 3.18C37.17 5.1 38.48 8.31 37 11.53C36.81 12.07 36.51 12.57 36.12 13.02C35.33 13.93 34.29 14.38 33 14.38C32.23 14.38 31.55 14.16 30.95 13.73C30.35 13.3 30.05 12.97 30.05 12.73C30.05 12.68 30.24 12.49 30.62 12.15C31.01 11.82 31.36 11.42 31.67 10.97C31.98 10.51 32.14 9.97 32.14 9.35C32.04 8.06 31.39 7.05 30.2 6.33C29 5.61 27.58 5.25 25.96 5.25C24.14 5.25 22.54 5.67 21.18 6.51C19.81 7.35 19.13 8.51 19.13 10C19.13 11.34 19.42 12.4 19.99 13.19C20.57 13.98 21.43 14.62 22.58 15.1C23.73 15.58 25.55 16.22 28.04 17.04C30.58 17.85 32.57 18.61 34 19.3C35.22 19.89 36.21 20.66 37 21.6C37.01 21.61 37.02 21.62 37.03 21.64C38.37 23.25 39.04 25.3 39.04 27.4L39.04 28.83Z" fill="#FA865F" fill-opacity="1.000000" fill-rule="nonzero"/>
</svg>
