<svg width="176.000000" height="35.000000" viewBox="0 0 176 35" fill="none" xmlns="http://www.w3.org/2000/svg" xmlns:xlink="http://www.w3.org/1999/xlink">
	<desc>
			Created with Pixso.
	</desc>
	<defs/>
	<path id="Shape" d="M10.22 11.48C7.67 12.48 2.19 15.45 0.72 19.3C-1.1 24.11 0.91 25.92 2.37 24.72C3.83 23.51 3.46 24.11 2 27.72C0.54 31.33 3.1 31.33 6.75 27.12C10.41 22.91 45.12 12.68 90.79 14.49C136.46 16.29 157.29 27.12 167.34 33.14C177.39 39.16 178.12 28.93 172.46 25.32C166.79 21.71 143.41 10.28 132.08 6.06C120.75 1.85 94.44 0.65 83.3 0.05C72.16 -0.55 62.66 4.26 58.45 5.46C54.25 6.67 54.07 9.07 65.94 9.07C77.82 9.07 90.06 10.28 78 10.88C65.94 11.48 51.88 12.68 45.12 13.89C38.36 15.09 32.88 13.89 40.37 11.48C47.86 9.07 56.44 6.67 48.59 5.46C40.73 4.26 21.92 6.67 10.22 11.48Z" fill="#FF733B" fill-opacity="1.000000" fill-rule="evenodd"/>
</svg>
